<?xml version="1.0" encoding="UTF-8" standalone="no"?>
<!DOCTYPE svg PUBLIC "-//W3C//DTD SVG 1.1//EN"
 "http://www.w3.org/Graphics/SVG/1.1/DTD/svg11.dtd">
<!-- Generated by graphviz version 2.44.1 (20210330.1920)
 -->
<!-- Title: opp Pages: 1 -->
<svg width="160pt" height="82pt"
 viewBox="0.00 0.00 159.50 82.00" xmlns="http://www.w3.org/2000/svg" xmlns:xlink="http://www.w3.org/1999/xlink">
<g id="graph0" class="graph" transform="scale(1 1) rotate(0) translate(4 78)">
<title>opp</title>
<polygon fill="transparent" stroke="transparent" points="-4,4 -4,-78 155.5,-78 155.5,4 -4,4"/>
<!-- Tictoc3 -->
<g id="node1" class="node">
<title>Tictoc3</title>
<g id="a_node1"><a xlink:href="Tictoc3.html" xlink:title="Network Tictoc3" target="_parent">
<polygon fill="#9090ff" stroke="black" points="96,-74 42,-74 42,-55 96,-55 96,-74"/>
<text text-anchor="middle" x="69" y="-62" font-family="Helvetica,sans-Serif" font-size="10.00">Tictoc3</text>
</a>
</g>
</g>
<!-- Txc3 -->
<g id="node2" class="node">
<title>Txc3</title>
<g id="a_node2"><a xlink:href="Txc3.html" xlink:title="Simple Module Txc3" target="_parent">
<polygon fill="#fffcaf" stroke="black" points="54,-19 0,-19 0,0 54,0 54,-19"/>
<text text-anchor="middle" x="27" y="-7" font-family="Helvetica,sans-Serif" font-size="10.00">Txc3</text>
</a>
</g>
</g>
<!-- Tictoc3&#45;&gt;Txc3 -->
<g id="edge1" class="edge">
<title>Tictoc3&#45;&gt;Txc3</title>
<path fill="none" stroke="black" d="M62.06,-54.75C56.13,-47.26 47.43,-36.28 40.18,-27.13"/>
<polygon fill="black" stroke="black" points="42.76,-24.75 33.81,-19.09 37.27,-29.1 42.76,-24.75"/>
</g>
<!-- DelayChannel -->
<g id="node3" class="node">
<title>DelayChannel</title>
<g id="a_node3"><a xlink:href="ned.DelayChannel.html" xlink:title="Channel DelayChannel" target="_parent">
<polygon fill="#d0ffd0" stroke="black" points="151.5,-19 72.5,-19 72.5,0 151.5,0 151.5,-19"/>
<text text-anchor="middle" x="112" y="-7" font-family="Helvetica,sans-Serif" font-size="10.00">DelayChannel</text>
</a>
</g>
</g>
<!-- Tictoc3&#45;&gt;DelayChannel -->
<g id="edge2" class="edge">
<title>Tictoc3&#45;&gt;DelayChannel</title>
<path fill="none" stroke="black" d="M76.1,-54.75C82.17,-47.26 91.09,-36.28 98.51,-27.13"/>
<polygon fill="black" stroke="black" points="101.45,-29.06 105.03,-19.09 96.01,-24.65 101.45,-29.06"/>
</g>
</g>
</svg>
