<?xml version="1.0" encoding="UTF-8" standalone="no"?>
<!DOCTYPE svg PUBLIC "-//W3C//DTD SVG 1.1//EN"
 "http://www.w3.org/Graphics/SVG/1.1/DTD/svg11.dtd">
<!-- Generated by graphviz version 2.44.1 (20210330.1920)
 -->
<!-- Title: opp Pages: 1 -->
<svg width="232pt" height="82pt"
 viewBox="0.00 0.00 231.50 82.00" xmlns="http://www.w3.org/2000/svg" xmlns:xlink="http://www.w3.org/1999/xlink">
<g id="graph0" class="graph" transform="scale(1 1) rotate(0) translate(4 78)">
<title>opp</title>
<polygon fill="transparent" stroke="transparent" points="-4,4 -4,-78 227.5,-78 227.5,4 -4,4"/>
<!-- TicToc5 -->
<g id="node1" class="node">
<title>TicToc5</title>
<g id="a_node1"><a xlink:href="TicToc5.html" xlink:title="Network TicToc5" target="_parent">
<polygon fill="#9090ff" stroke="black" points="126,-74 72,-74 72,-55 126,-55 126,-74"/>
<text text-anchor="middle" x="99" y="-62" font-family="Helvetica,sans-Serif" font-size="10.00">TicToc5</text>
</a>
</g>
</g>
<!-- Tic5 -->
<g id="node2" class="node">
<title>Tic5</title>
<g id="a_node2"><a xlink:href="Tic5.html" xlink:title="Simple Module Tic5" target="_parent">
<polygon fill="#fffcaf" stroke="black" points="54,-19 0,-19 0,0 54,0 54,-19"/>
<text text-anchor="middle" x="27" y="-7" font-family="Helvetica,sans-Serif" font-size="10.00">Tic5</text>
</a>
</g>
</g>
<!-- TicToc5&#45;&gt;Tic5 -->
<g id="edge1" class="edge">
<title>TicToc5&#45;&gt;Tic5</title>
<path fill="none" stroke="black" d="M87.43,-54.98C76.58,-47 60.12,-34.88 47.12,-25.31"/>
<polygon fill="black" stroke="black" points="48.91,-22.28 38.78,-19.17 44.76,-27.92 48.91,-22.28"/>
</g>
<!-- Toc5 -->
<g id="node3" class="node">
<title>Toc5</title>
<g id="a_node3"><a xlink:href="Toc5.html" xlink:title="Simple Module Toc5" target="_parent">
<polygon fill="#fffcaf" stroke="black" points="126,-19 72,-19 72,0 126,0 126,-19"/>
<text text-anchor="middle" x="99" y="-7" font-family="Helvetica,sans-Serif" font-size="10.00">Toc5</text>
</a>
</g>
</g>
<!-- TicToc5&#45;&gt;Toc5 -->
<g id="edge2" class="edge">
<title>TicToc5&#45;&gt;Toc5</title>
<path fill="none" stroke="black" d="M99,-54.75C99,-47.8 99,-37.85 99,-29.13"/>
<polygon fill="black" stroke="black" points="102.5,-29.09 99,-19.09 95.5,-29.09 102.5,-29.09"/>
</g>
<!-- DelayChannel -->
<g id="node4" class="node">
<title>DelayChannel</title>
<g id="a_node4"><a xlink:href="ned.DelayChannel.html" xlink:title="Channel DelayChannel" target="_parent">
<polygon fill="#d0ffd0" stroke="black" points="223.5,-19 144.5,-19 144.5,0 223.5,0 223.5,-19"/>
<text text-anchor="middle" x="184" y="-7" font-family="Helvetica,sans-Serif" font-size="10.00">DelayChannel</text>
</a>
</g>
</g>
<!-- TicToc5&#45;&gt;DelayChannel -->
<g id="edge3" class="edge">
<title>TicToc5&#45;&gt;DelayChannel</title>
<path fill="none" stroke="black" d="M112.66,-54.98C125.84,-46.77 146.03,-34.18 161.57,-24.49"/>
<polygon fill="black" stroke="black" points="163.46,-27.43 170.09,-19.17 159.76,-21.49 163.46,-27.43"/>
</g>
</g>
</svg>
