<?xml version="1.0" encoding="UTF-8" standalone="no"?>
<!DOCTYPE svg PUBLIC "-//W3C//DTD SVG 1.1//EN"
 "http://www.w3.org/Graphics/SVG/1.1/DTD/svg11.dtd">
<!-- Generated by graphviz version 2.44.1 (20210330.1920)
 -->
<!-- Title: opp Pages: 1 -->
<svg width="160pt" height="82pt"
 viewBox="0.00 0.00 159.50 82.00" xmlns="http://www.w3.org/2000/svg" xmlns:xlink="http://www.w3.org/1999/xlink">
<g id="graph0" class="graph" transform="scale(1 1) rotate(0) translate(4 78)">
<title>opp</title>
<polygon fill="transparent" stroke="transparent" points="-4,4 -4,-78 155.5,-78 155.5,4 -4,4"/>
<!-- Tictoc2 -->
<g id="node1" class="node">
<title>Tictoc2</title>
<g id="a_node1"><a xlink:href="Tictoc2.html" xlink:title="Network Tictoc2" target="_parent">
<polygon fill="#9090ff" stroke="black" points="108.5,-74 54.5,-74 54.5,-55 108.5,-55 108.5,-74"/>
<text text-anchor="middle" x="81.5" y="-62" font-family="Helvetica,sans-Serif" font-size="10.00">Tictoc2</text>
</a>
</g>
</g>
<!-- DelayChannel -->
<g id="node2" class="node">
<title>DelayChannel</title>
<g id="a_node2"><a xlink:href="ned.DelayChannel.html" xlink:title="Channel DelayChannel" target="_parent">
<polygon fill="#d0ffd0" stroke="black" points="79,-19 0,-19 0,0 79,0 79,-19"/>
<text text-anchor="middle" x="39.5" y="-7" font-family="Helvetica,sans-Serif" font-size="10.00">DelayChannel</text>
</a>
</g>
</g>
<!-- Tictoc2&#45;&gt;DelayChannel -->
<g id="edge1" class="edge">
<title>Tictoc2&#45;&gt;DelayChannel</title>
<path fill="none" stroke="black" d="M74.56,-54.75C68.63,-47.26 59.93,-36.28 52.68,-27.13"/>
<polygon fill="black" stroke="black" points="55.26,-24.75 46.31,-19.09 49.77,-29.1 55.26,-24.75"/>
</g>
<!-- Txc2 -->
<g id="node3" class="node">
<title>Txc2</title>
<g id="a_node3"><a xlink:href="Txc2.html" xlink:title="Simple Module Txc2" target="_parent">
<polygon fill="#fffcaf" stroke="black" points="151.5,-19 97.5,-19 97.5,0 151.5,0 151.5,-19"/>
<text text-anchor="middle" x="124.5" y="-7" font-family="Helvetica,sans-Serif" font-size="10.00">Txc2</text>
</a>
</g>
</g>
<!-- Tictoc2&#45;&gt;Txc2 -->
<g id="edge2" class="edge">
<title>Tictoc2&#45;&gt;Txc2</title>
<path fill="none" stroke="black" d="M88.6,-54.75C94.67,-47.26 103.59,-36.28 111.01,-27.13"/>
<polygon fill="black" stroke="black" points="113.95,-29.06 117.53,-19.09 108.51,-24.65 113.95,-29.06"/>
</g>
</g>
</svg>
