<?xml version="1.0" encoding="UTF-8" standalone="no"?>
<!DOCTYPE svg PUBLIC "-//W3C//DTD SVG 1.1//EN"
 "http://www.w3.org/Graphics/SVG/1.1/DTD/svg11.dtd">
<!-- Generated by graphviz version 2.44.1 (20210330.1920)
 -->
<!-- Title: opp Pages: 1 -->
<svg width="134pt" height="82pt"
 viewBox="0.00 0.00 134.00 82.00" xmlns="http://www.w3.org/2000/svg" xmlns:xlink="http://www.w3.org/1999/xlink">
<g id="graph0" class="graph" transform="scale(1 1) rotate(0) translate(4 78)">
<title>opp</title>
<polygon fill="transparent" stroke="transparent" points="-4,4 -4,-78 130,-78 130,4 -4,4"/>
<!-- Txc5 -->
<g id="node1" class="node">
<title>Txc5</title>
<g id="a_node1"><a xlink:href="Txc5.html" xlink:title="Simple Module Txc5" target="_parent">
<polygon fill="#fff700" stroke="black" points="90,-74 36,-74 36,-55 90,-55 90,-74"/>
<text text-anchor="middle" x="63" y="-62" font-family="Helvetica,sans-Serif" font-size="10.00">Txc5</text>
</a>
</g>
</g>
<!-- Tic5 -->
<g id="node2" class="node">
<title>Tic5</title>
<g id="a_node2"><a xlink:href="Tic5.html" xlink:title="Simple Module Tic5" target="_parent">
<polygon fill="#fffcaf" stroke="black" points="54,-19 0,-19 0,0 54,0 54,-19"/>
<text text-anchor="middle" x="27" y="-7" font-family="Helvetica,sans-Serif" font-size="10.00">Tic5</text>
</a>
</g>
</g>
<!-- Txc5&#45;&gt;Tic5 -->
<g id="edge1" class="edge">
<title>Txc5&#45;&gt;Tic5</title>
<path fill="none" stroke="black" d="M57.06,-54.75C50.35,-44.87 39.5,-28.9 32.83,-19.09"/>
</g>
<!-- Toc5 -->
<g id="node3" class="node">
<title>Toc5</title>
<g id="a_node3"><a xlink:href="Toc5.html" xlink:title="Simple Module Toc5" target="_parent">
<polygon fill="#fffcaf" stroke="black" points="126,-19 72,-19 72,0 126,0 126,-19"/>
<text text-anchor="middle" x="99" y="-7" font-family="Helvetica,sans-Serif" font-size="10.00">Toc5</text>
</a>
</g>
</g>
<!-- Txc5&#45;&gt;Toc5 -->
<g id="edge2" class="edge">
<title>Txc5&#45;&gt;Toc5</title>
<path fill="none" stroke="black" d="M68.94,-54.75C75.65,-44.87 86.5,-28.9 93.17,-19.09"/>
</g>
</g>
</svg>
